<svg id="visual" viewBox="0 0 900 600" width="900" height="600" xmlns="http://www.w3.org/2000/svg" xmlns:xlink="http://www.w3.org/1999/xlink" version="1.1"><rect x="0" y="0" width="900" height="600" fill="#fff"></rect><defs><linearGradient id="grad1_0" x1="33.3%" y1="100%" x2="100%" y2="0%"><stop offset="20%" stop-color="#e1f3fd" stop-opacity="1"></stop><stop offset="80%" stop-color="#e1f3fd" stop-opacity="1"></stop></linearGradient></defs><defs><linearGradient id="grad1_1" x1="33.3%" y1="100%" x2="100%" y2="0%"><stop offset="20%" stop-color="#e1f3fd" stop-opacity="1"></stop><stop offset="80%" stop-color="#ffffff" stop-opacity="1"></stop></linearGradient></defs><defs><linearGradient id="grad2_0" x1="0%" y1="100%" x2="66.7%" y2="0%"><stop offset="20%" stop-color="#e1f3fd" stop-opacity="1"></stop><stop offset="80%" stop-color="#e1f3fd" stop-opacity="1"></stop></linearGradient></defs><defs><linearGradient id="grad2_1" x1="0%" y1="100%" x2="66.7%" y2="0%"><stop offset="20%" stop-color="#ffffff" stop-opacity="1"></stop><stop offset="80%" stop-color="#e1f3fd" stop-opacity="1"></stop></linearGradient></defs><g transform="translate(900, 600)"><path d="M-216.3 0C-202.1 -13.2 -187.8 -26.4 -186.2 -42.5C-184.6 -58.6 -195.8 -77.5 -194.9 -93.9C-194 -110.2 -181.1 -124.1 -165.7 -132.2C-150.4 -140.3 -132.7 -142.7 -119.1 -149.3C-105.5 -156 -96.1 -166.8 -84.6 -175.7C-73.1 -184.6 -59.6 -191.5 -45.2 -197.9C-30.7 -204.4 -15.4 -210.3 0 -216.3L0 0Z" fill="#f0f9fe"></path><path d="M-108.2 0C-101 -6.6 -93.9 -13.2 -93.1 -21.3C-92.3 -29.3 -97.9 -38.7 -97.5 -46.9C-97 -55.1 -90.5 -62 -82.9 -66.1C-75.2 -70.1 -66.3 -71.4 -59.5 -74.7C-52.8 -78 -48 -83.4 -42.3 -87.8C-36.6 -92.3 -29.8 -95.7 -22.6 -99C-15.4 -102.2 -7.7 -105.2 0 -108.2L0 0Z" fill="#e1f3fd"></path></g><g transform="translate(0, 0)"><path d="M216.3 0C207 14.2 197.6 28.4 195 44.5C192.4 60.6 196.5 78.7 189.2 91.1C181.9 103.6 163 110.4 149.3 119.1C135.6 127.8 127.1 138.4 116.6 146.2C106.1 154 93.5 159.1 82.4 171.2C71.3 183.2 61.6 202.2 48.1 210.9C34.6 219.6 17.3 218 0 216.3L0 0Z" fill="#f0f9fe"></path><path d="M108.2 0C103.5 7.1 98.8 14.2 97.5 22.3C96.2 30.3 98.3 39.3 94.6 45.6C90.9 51.8 81.5 55.2 74.7 59.5C67.8 63.9 63.6 69.2 58.3 73.1C53 77 46.8 79.6 41.2 85.6C35.7 91.6 30.8 101.1 24.1 105.5C17.3 109.8 8.7 109 0 108.2L0 0Z" fill="#e1f3fd"></path></g></svg>