<svg id="visual" viewBox="0 0 900 600" width="900" height="600" xmlns="http://www.w3.org/2000/svg" xmlns:xlink="http://www.w3.org/1999/xlink" version="1.1"><path d="M0 181L18.8 199C37.7 217 75.3 253 112.8 239C150.3 225 187.7 161 225.2 120C262.7 79 300.3 61 337.8 89C375.3 117 412.7 191 450.2 227C487.7 263 525.3 261 562.8 259C600.3 257 637.7 255 675.2 249C712.7 243 750.3 233 787.8 253C825.3 273 862.7 323 881.3 348L900 373L900 0L881.3 0C862.7 0 825.3 0 787.8 0C750.3 0 712.7 0 675.2 0C637.7 0 600.3 0 562.8 0C525.3 0 487.7 0 450.2 0C412.7 0 375.3 0 337.8 0C300.3 0 262.7 0 225.2 0C187.7 0 150.3 0 112.8 0C75.3 0 37.7 0 18.8 0L0 0Z" fill="#2e546c"></path><path d="M0 331L18.8 352C37.7 373 75.3 415 112.8 380C150.3 345 187.7 233 225.2 171C262.7 109 300.3 97 337.8 135C375.3 173 412.7 261 450.2 298C487.7 335 525.3 321 562.8 316C600.3 311 637.7 315 675.2 309C712.7 303 750.3 287 787.8 301C825.3 315 862.7 359 881.3 381L900 403L900 371L881.3 346C862.7 321 825.3 271 787.8 251C750.3 231 712.7 241 675.2 247C637.7 253 600.3 255 562.8 257C525.3 259 487.7 261 450.2 225C412.7 189 375.3 115 337.8 87C300.3 59 262.7 77 225.2 118C187.7 159 150.3 223 112.8 237C75.3 251 37.7 215 18.8 197L0 179Z" fill="#294960"></path><path d="M0 367L18.8 387C37.7 407 75.3 447 112.8 440C150.3 433 187.7 379 225.2 346C262.7 313 300.3 301 337.8 340C375.3 379 412.7 469 450.2 500C487.7 531 525.3 503 562.8 472C600.3 441 637.7 407 675.2 381C712.7 355 750.3 337 787.8 360C825.3 383 862.7 447 881.3 479L900 511L900 401L881.3 379C862.7 357 825.3 313 787.8 299C750.3 285 712.7 301 675.2 307C637.7 313 600.3 309 562.8 314C525.3 319 487.7 333 450.2 296C412.7 259 375.3 171 337.8 133C300.3 95 262.7 107 225.2 169C187.7 231 150.3 343 112.8 378C75.3 413 37.7 371 18.8 350L0 329Z" fill="#233f54"></path><path d="M0 601L18.8 601C37.7 601 75.3 601 112.8 601C150.3 601 187.7 601 225.2 601C262.7 601 300.3 601 337.8 601C375.3 601 412.7 601 450.2 601C487.7 601 525.3 601 562.8 601C600.3 601 637.7 601 675.2 601C712.7 601 750.3 601 787.8 601C825.3 601 862.7 601 881.3 601L900 601L900 509L881.3 477C862.7 445 825.3 381 787.8 358C750.3 335 712.7 353 675.2 379C637.7 405 600.3 439 562.8 470C525.3 501 487.7 529 450.2 498C412.7 467 375.3 377 337.8 338C300.3 299 262.7 311 225.2 344C187.7 377 150.3 431 112.8 438C75.3 445 37.7 405 18.8 385L0 365Z" fill="#1e3448"></path></svg>